<svg width="117" height="117" viewBox="0 0 97 101" fill="none" xmlns="http://www.w3.org/2000/svg">
<path d="M95.6177 86.2919L65.96 36.8116V11.6538H67.9C69.4435 11.6538 70.9239 11.0399 72.0153 9.94718C73.1068 8.85442 73.72 7.37232 73.72 5.82692C73.72 4.28153 73.1068 2.79943 72.0153 1.70667C70.9239 0.613906 69.4435 0 67.9 0H29.1C27.5565 0 26.0761 0.613906 24.9847 1.70667C23.8932 2.79943 23.28 4.28153 23.28 5.82692C23.28 7.37232 23.8932 8.85442 24.9847 9.94718C26.0761 11.0399 27.5565 11.6538 29.1 11.6538H31.04V36.8116L1.38234 86.2919C0.499176 87.7656 0.0224291 89.4475 0.000772236 91.1659C-0.0208846 92.8844 0.413325 94.5778 1.25907 96.0733C2.10481 97.5689 3.3318 98.8129 4.81476 99.6784C6.29772 100.544 7.98353 101 9.70007 101H87.2999C89.0165 101 90.7023 100.544 92.1852 99.6784C93.6682 98.8129 94.8952 97.5689 95.7409 96.0733C96.5867 94.5778 97.0209 92.8844 96.9992 91.1659C96.9776 89.4475 96.5008 87.7656 95.6177 86.2919ZM54.32 11.6538V38.4286C54.3203 39.484 54.607 40.5195 55.1493 41.4246L72.1874 69.8502C66.9542 70.2678 59.9896 69.2141 51.1287 64.7225C44.3387 61.2847 37.8106 59.221 31.5978 58.5266L41.8507 41.4246C42.393 40.5195 42.6797 39.484 42.68 38.4286V11.6538H54.32ZM13.1242 89.3462L24.735 70.0153C31.04 69.4763 38.1307 71.1904 45.8907 75.1236C55.4015 79.9405 63.4719 81.5866 70.0679 81.5866C72.9483 81.5982 75.82 81.2689 78.6233 80.6058L83.8758 89.3462H13.1242Z" fill="white"/>
</svg>
