<svg width="117" height="117" viewBox="0 0 71 102" fill="none" xmlns="http://www.w3.org/2000/svg">
<path d="M67.6958 20.4C72.8797 31.467 71.6992 44.523 66.0021 55.131C61.1774 63.75 54.2484 71.043 48.3459 79.05C45.7796 82.62 43.2133 86.445 41.3143 90.576C40.647 91.953 40.1851 93.381 39.6718 94.809C39.1586 96.237 38.6966 97.665 38.2347 99.093C37.7728 100.419 37.2082 102 35.5144 102C33.5127 102 32.9481 99.756 32.5375 98.226C31.3057 94.503 30.0739 90.933 28.1748 87.516C26.0191 83.487 23.2989 79.764 20.5273 76.143L67.6958 20.4ZM20.7326 32.742L3.79499 52.734C6.92588 59.313 11.5965 64.923 16.0619 70.533C17.1397 71.808 18.2176 73.134 19.2441 74.511L40.647 49.317L40.4417 49.368C32.9481 51.918 24.6333 48.144 21.6564 40.8C21.2458 39.933 20.9379 38.913 20.7326 37.893C20.4454 36.205 20.4454 34.481 20.7326 32.793V32.742ZM7.69576 13.362L7.64444 13.413C-0.670366 23.868 -2.10749 38.403 2.87112 50.694L23.3502 26.52L23.0935 26.265L7.69576 13.362ZM46.9088 1.836L30.3818 21.267L30.5871 21.216C37.4648 18.87 45.1637 21.828 48.6539 28.05C49.4238 29.478 50.0397 31.008 50.245 32.538C50.5529 34.476 50.6556 35.853 50.2963 37.74V37.791L66.7206 18.411C62.4227 10.6597 55.3805 4.77087 46.9601 1.887L46.9088 1.836ZM24.6847 24.939L44.7531 1.224L44.5478 1.173C41.5709 0.408 38.5427 0 35.5144 0C25.4032 0 15.8566 4.335 9.08156 11.781L8.97891 11.832L24.6847 24.939Z" fill="white"/>
</svg>
