<svg width="117" height="117" viewBox="0 0 95 95" fill="none" xmlns="http://www.w3.org/2000/svg">
<path fill-rule="evenodd" clip-rule="evenodd" d="M33.9218 0.00030434C30.7054 0.00030434 27.4075 1.04074 24.8086 3.18963C22.1689 5.36571 20.3436 8.62984 20.3436 12.3972V22.89H10.1786C4.68214 22.89 0 27.2014 0 32.8184V85.0716C0 90.6818 4.68214 95 10.1786 95H84.8214C90.3179 95 95 90.6818 95 85.0716V32.8184C95 27.2082 90.3179 22.89 84.8214 22.89H74.6564V12.3972C74.6564 8.63664 72.8311 5.36571 70.1914 3.18963C67.6114 1.10542 64.392 -0.021276 61.0782 0.00030434H33.9218ZM61.085 22.89V13.6008H33.915V22.89H61.085ZM29.6875 58.945C29.6875 56.5989 31.5875 54.6948 33.9286 54.6948H43.2589V45.3445C43.2589 44.2173 43.7058 43.1362 44.5011 42.3391C45.2965 41.5421 46.3752 41.0943 47.5 41.0943C48.6248 41.0943 49.7035 41.5421 50.4989 42.3391C51.2942 43.1362 51.7411 44.2173 51.7411 45.3445V54.6948H61.0714C62.1962 54.6948 63.275 55.1426 64.0703 55.9397C64.8657 56.7367 65.3125 57.8178 65.3125 58.945C65.3125 60.0722 64.8657 61.1533 64.0703 61.9503C63.275 62.7474 62.1962 63.1952 61.0714 63.1952H51.7411V72.5455C51.7411 73.6727 51.2942 74.7538 50.4989 75.5508C49.7035 76.3479 48.6248 76.7957 47.5 76.7957C46.3752 76.7957 45.2965 76.3479 44.5011 75.5508C43.7058 74.7538 43.2589 73.6727 43.2589 72.5455V63.1952H33.9286C32.8038 63.1952 31.725 62.7474 30.9297 61.9503C30.1343 61.1533 29.6875 60.0722 29.6875 58.945Z" fill="white"/>
</svg>
