<svg width="199" height="199" viewBox="0 0 178 177" fill="none" xmlns="http://www.w3.org/2000/svg">
<path d="M62.2969 114.315V119.475C62.2969 130.037 66.5162 140.167 74.0266 147.636C81.5371 155.104 91.7235 159.3 102.345 159.3C112.966 159.3 123.153 155.104 130.663 147.636C138.174 140.167 142.393 130.037 142.393 119.475V104.696C136.452 102.608 131.446 98.4988 128.257 93.0949C125.069 87.691 123.904 81.3401 124.969 75.1649C126.034 68.9897 129.26 63.3877 134.077 59.3492C138.894 55.3107 144.992 53.0957 151.292 53.0957C157.593 53.0957 163.69 55.3107 168.507 59.3492C173.324 63.3877 176.551 68.9897 177.616 75.1649C178.681 81.3401 177.516 87.691 174.328 93.0949C171.139 98.4988 166.132 102.608 160.192 104.696V119.475C160.192 134.732 154.097 149.363 143.249 160.151C132.4 170.939 117.687 177 102.345 177C87.0028 177 72.2892 170.939 61.4408 160.151C50.5923 149.363 44.4978 134.732 44.4978 119.475V114.315C32.0555 112.22 20.761 105.813 12.616 96.2274C4.47101 86.6423 0.00161864 74.4991 0 61.95L0 17.7C0 13.0057 1.87526 8.5036 5.21324 5.18421C8.55122 1.86482 13.0785 0 17.7991 0L26.6987 0C29.059 0 31.3226 0.932408 32.9916 2.59211C34.6606 4.2518 35.5982 6.50283 35.5982 8.85C35.5982 11.1972 34.6606 13.4482 32.9916 15.1079C31.3226 16.7676 29.059 17.7 26.6987 17.7H17.7991V61.95C17.7991 71.3387 21.5496 80.3428 28.2256 86.9816C34.9015 93.6204 43.9561 97.35 53.3973 97.35C62.8385 97.35 71.8931 93.6204 78.5691 86.9816C85.245 80.3428 88.9955 71.3387 88.9955 61.95V17.7H80.096C77.7357 17.7 75.472 16.7676 73.803 15.1079C72.134 13.4482 71.1964 11.1972 71.1964 8.85C71.1964 6.50283 72.134 4.2518 73.803 2.59211C75.472 0.932408 77.7357 0 80.096 0L88.9955 0C93.7161 0 98.2434 1.86482 101.581 5.18421C104.919 8.5036 106.795 13.0057 106.795 17.7V61.95C106.793 74.4991 102.324 86.6423 94.1786 96.2274C86.0336 105.813 74.7391 112.22 62.2969 114.315ZM151.292 88.5C153.653 88.5 155.916 87.5676 157.585 85.9079C159.254 84.2482 160.192 81.9972 160.192 79.65C160.192 77.3028 159.254 75.0518 157.585 73.3921C155.916 71.7324 153.653 70.8 151.292 70.8C148.932 70.8 146.668 71.7324 144.999 73.3921C143.33 75.0518 142.393 77.3028 142.393 79.65C142.393 81.9972 143.33 84.2482 144.999 85.9079C146.668 87.5676 148.932 88.5 151.292 88.5Z" fill="white"/>
</svg>
