<svg width="199" height="199" viewBox="0 0 167 174" fill="none" xmlns="http://www.w3.org/2000/svg">
<path d="M164.62 148.661L113.56 63.418V20.0769H116.9C119.557 20.0769 122.106 19.0193 123.985 17.1367C125.864 15.2541 126.92 12.7008 126.92 10.0385C126.92 7.3761 125.864 4.82277 123.985 2.9402C122.106 1.05762 119.557 0 116.9 0H50.1001C47.4426 0 44.894 1.05762 43.0149 2.9402C41.1358 4.82277 40.0801 7.3761 40.0801 10.0385C40.0801 12.7008 41.1358 15.2541 43.0149 17.1367C44.894 19.0193 47.4426 20.0769 50.1001 20.0769H53.4401V63.418L2.37991 148.661C0.859407 151.2 0.038615 154.098 0.00132952 157.058C-0.035956 160.019 0.7116 162.936 2.16768 165.512C3.62375 168.089 5.73619 170.232 8.28933 171.723C10.8425 173.214 13.7448 174 16.7001 174H150.3C153.255 174 156.158 173.214 158.711 171.723C161.264 170.232 163.376 168.089 164.832 165.512C166.288 162.936 167.036 160.019 166.999 157.058C166.961 154.098 166.141 151.2 164.62 148.661ZM93.52 20.0769V66.2037C93.5206 68.0219 94.0141 69.8059 94.9478 71.3651L124.281 120.336C115.272 121.055 103.281 119.24 88.0257 111.502C76.3357 105.58 65.0966 102.024 54.4003 100.828L72.0522 71.3651C72.9859 69.8059 73.4794 68.0219 73.48 66.2037V20.0769H93.52ZM22.5952 153.923L42.5851 120.62C53.4401 119.692 65.6477 122.645 79.0077 129.421C95.382 137.719 109.276 140.555 120.632 140.555C125.591 140.575 130.536 140.008 135.362 138.865L144.405 153.923H22.5952Z" fill="white"/>
</svg>
