<svg width="68" height="68" viewBox="0 0 68 68" fill="none" xmlns="http://www.w3.org/2000/svg">
<path d="M62.3333 0H5.66667C4.16377 0 2.72243 0.597022 1.65973 1.65973C0.597022 2.72243 0 4.16377 0 5.66667V62.3333C0 63.8362 0.597022 65.2776 1.65973 66.3403C2.72243 67.403 4.16377 68 5.66667 68H62.3333C63.8362 68 65.2776 67.403 66.3403 66.3403C67.403 65.2776 68 63.8362 68 62.3333V5.66667C68 4.16377 67.403 2.72243 66.3403 1.65973C65.2776 0.597022 63.8362 0 62.3333 0ZM53.8333 36.8333H36.8333V53.8333C36.8333 54.5848 36.5348 55.3055 36.0035 55.8368C35.4721 56.3682 34.7514 56.6667 34 56.6667C33.2486 56.6667 32.5279 56.3682 31.9965 55.8368C31.4652 55.3055 31.1667 54.5848 31.1667 53.8333V36.8333H14.1667C13.4152 36.8333 12.6946 36.5348 12.1632 36.0035C11.6318 35.4721 11.3333 34.7514 11.3333 34C11.3333 33.2486 11.6318 32.5279 12.1632 31.9965C12.6946 31.4652 13.4152 31.1667 14.1667 31.1667H31.1667V14.1667C31.1667 13.4152 31.4652 12.6946 31.9965 12.1632C32.5279 11.6318 33.2486 11.3333 34 11.3333C34.7514 11.3333 35.4721 11.6318 36.0035 12.1632C36.5348 12.6946 36.8333 13.4152 36.8333 14.1667V31.1667H53.8333C54.5848 31.1667 55.3055 31.4652 55.8368 31.9965C56.3682 32.5279 56.6667 33.2486 56.6667 34C56.6667 34.7514 56.3682 35.4721 55.8368 36.0035C55.3055 36.5348 54.5848 36.8333 53.8333 36.8333Z" fill="white"/>
</svg>
